<?xml version="1.0" encoding="utf-8"?>
<!-- Generator: Adobe Illustrator 19.1.0, SVG Export Plug-In . SVG Version: 6.00 Build 0)  -->
<svg version="1.1" id="Layer_1" xmlns="http://www.w3.org/2000/svg" xmlns:xlink="http://www.w3.org/1999/xlink" x="0px" y="0px"
	 viewBox="0 0 50 25" style="enable-background:new 0 0 50 25;" xml:space="preserve">
<style type="text/css">
	.st0{fill:#003DA6;}
	.st1{fill:#FFFFFF;}
</style>
<g>
	<g>
		<g>
			<path class="st0" d="M16.7,22.6c1.3-1,3.3-1.4,4.5-1.2c1.2,0.2,1.2,1.1-0.2,2c-1.4,1-3.6,1.8-4.8,1.6
				C15.1,24.7,15.3,23.6,16.7,22.6z"/>
			<path class="st0" d="M17.7,18.7c1-0.7,2.5-0.9,3.4-0.6c0.9,0.3,0.9,1.1-0.2,1.7c-1.1,0.7-2.8,1.1-3.7,0.8
				C16.4,20.3,16.6,19.4,17.7,18.7z"/>
			<path class="st0" d="M18.6,15.5c0.8-0.5,1.9-0.5,2.5-0.1c0.7,0.4,0.6,1-0.1,1.5c-0.8,0.5-2,0.7-2.7,0.3
				C17.6,16.8,17.8,16,18.6,15.5z"/>
			<path class="st0" d="M19.4,12.4c0.6-0.3,1.4-0.2,1.8,0.2c0.5,0.4,0.4,0.9-0.1,1.2c-0.6,0.3-1.5,0.3-1.9-0.1
				C18.7,13.4,18.8,12.8,19.4,12.4z"/>
			<path class="st0" d="M20.1,9.4c0.4-0.2,0.9,0,1.2,0.4c0.3,0.4,0.3,0.8-0.1,1c-0.4,0.2-1,0.1-1.3-0.3C19.6,10.1,19.7,9.6,20.1,9.4
				z"/>
			<path class="st0" d="M20.8,6.4c0.3-0.1,0.6,0.2,0.8,0.5c0.2,0.4,0.2,0.7-0.1,0.8c-0.3,0.1-0.6-0.1-0.8-0.5
				C20.4,6.9,20.5,6.5,20.8,6.4z"/>
		</g>
		<g>
			<path class="st0" d="M28.7,19.3c1.1-0.7,3-1.2,4.5-1.2c1.5-0.1,1.9,0.3,0.8,1c-1.1,0.7-3.3,1.5-4.8,1.6
				C27.7,20.7,27.5,20,28.7,19.3z"/>
			<path class="st0" d="M28.2,16.9c0.8-0.5,2.3-0.7,3.4-0.6c1.1,0.1,1.5,0.4,0.6,0.9c-0.9,0.5-2.5,0.9-3.7,0.8
				C27.5,18,27.3,17.4,28.2,16.9z"/>
			<path class="st0" d="M27.8,15.1c0.6-0.3,1.7-0.3,2.5-0.1c0.9,0.2,1.1,0.5,0.5,0.8c-0.6,0.3-1.9,0.5-2.7,0.3
				C27.3,15.9,27.2,15.4,27.8,15.1z"/>
			<path class="st0" d="M27.4,13.4c0.4-0.1,1.2,0,1.8,0.2c0.6,0.2,0.8,0.5,0.4,0.6c-0.4,0.2-1.3,0.2-1.9-0.1
				C27.1,13.9,27,13.5,27.4,13.4z"/>
			<path class="st0" d="M26.9,11.7c0.3,0,0.8,0.1,1.2,0.4c0.4,0.3,0.6,0.5,0.3,0.5c-0.3,0.1-0.9-0.1-1.3-0.3
				C26.7,12,26.6,11.7,26.9,11.7z"/>
			<path class="st0" d="M26.4,10c0.2,0,0.5,0.3,0.8,0.5c0.3,0.3,0.4,0.4,0.2,0.4c-0.2,0-0.6-0.2-0.8-0.5C26.3,10.2,26.2,10,26.4,10z
				"/>
		</g>
		<g>
			<path class="st0" d="M25.3,10.6c-0.6,0.2-1.7-0.3-2.4-1c-0.6-0.8-0.6-1.7,0-1.9c0.6-0.1,1.4,0.6,2.1,1.4
				C25.6,9.9,25.8,10.5,25.3,10.6z"/>
			<path class="st0" d="M25.5,12.7c-0.6,0.3-1.8,0.1-2.5-0.5c-0.7-0.6-0.6-1.3,0-1.6c0.6-0.2,1.6,0.2,2.2,0.7
				C25.9,12,26.1,12.5,25.5,12.7z"/>
			<path class="st0" d="M25.6,14.7c-0.6,0.3-1.7,0.3-2.4,0c-0.7-0.4-0.6-1,0-1.3c0.6-0.3,1.6-0.2,2.2,0.2
				C26.1,14,26.2,14.4,25.6,14.7z"/>
			<path class="st0" d="M25.8,16.8c-0.6,0.3-1.6,0.5-2.3,0.3c-0.6-0.2-0.6-0.7,0-1.1c0.6-0.3,1.5-0.4,2.2-0.2
				C26.3,16.1,26.4,16.5,25.8,16.8z"/>
			<path class="st0" d="M25.9,18.9c-0.5,0.3-1.5,0.6-2.1,0.5c-0.6-0.1-0.6-0.5,0-0.8c0.5-0.3,1.4-0.5,2-0.4
				C26.3,18.2,26.4,18.6,25.9,18.9z"/>
			<path class="st0" d="M25.9,21.1c-0.5,0.3-1.3,0.6-1.8,0.6c-0.5,0-0.5-0.3,0-0.7c0.5-0.3,1.2-0.5,1.7-0.5
				C26.4,20.5,26.4,20.8,25.9,21.1z"/>
		</g>
	</g>
	<g>
		<g>
			<path class="st1" d="M16.7,22.6c1.3-1,3.3-1.4,4.5-1.2c1.2,0.2,1.2,1.1-0.2,2c-1.4,1-3.6,1.8-4.8,1.6
				C15.1,24.7,15.3,23.6,16.7,22.6z"/>
			<path class="st1" d="M17.7,18.7c1-0.7,2.5-0.9,3.4-0.6c0.9,0.3,0.9,1.1-0.2,1.7c-1.1,0.7-2.8,1.1-3.7,0.8
				C16.4,20.3,16.6,19.4,17.7,18.7z"/>
			<path class="st1" d="M18.6,15.5c0.8-0.5,1.9-0.5,2.5-0.1c0.7,0.4,0.6,1-0.1,1.5c-0.8,0.5-2,0.7-2.7,0.3
				C17.6,16.8,17.8,16,18.6,15.5z"/>
			<path class="st1" d="M19.4,12.4c0.6-0.3,1.4-0.2,1.8,0.2c0.5,0.4,0.4,0.9-0.1,1.2c-0.6,0.3-1.5,0.3-1.9-0.1
				C18.7,13.4,18.8,12.8,19.4,12.4z"/>
			<path class="st1" d="M20.1,9.4c0.4-0.2,0.9,0,1.2,0.4c0.3,0.4,0.3,0.8-0.1,1c-0.4,0.2-1,0.1-1.3-0.3C19.6,10.1,19.7,9.6,20.1,9.4
				z"/>
			<path class="st1" d="M20.8,6.4c0.3-0.1,0.6,0.2,0.8,0.5c0.2,0.4,0.2,0.7-0.1,0.8c-0.3,0.1-0.6-0.1-0.8-0.5
				C20.4,6.9,20.5,6.5,20.8,6.4z"/>
		</g>
		<g>
			<path class="st1" d="M28.7,19.3c1.1-0.7,3-1.2,4.5-1.2c1.5-0.1,1.9,0.3,0.8,1c-1.1,0.7-3.3,1.5-4.8,1.6
				C27.7,20.7,27.5,20,28.7,19.3z"/>
			<path class="st1" d="M28.2,16.9c0.8-0.5,2.3-0.7,3.4-0.6c1.1,0.1,1.5,0.4,0.6,0.9c-0.9,0.5-2.5,0.9-3.7,0.8
				C27.5,18,27.3,17.4,28.2,16.9z"/>
			<path class="st1" d="M27.8,15.1c0.6-0.3,1.7-0.3,2.5-0.1c0.9,0.2,1.1,0.5,0.5,0.8c-0.6,0.3-1.9,0.5-2.7,0.3
				C27.3,15.9,27.2,15.4,27.8,15.1z"/>
			<path class="st1" d="M27.4,13.4c0.4-0.1,1.2,0,1.8,0.2c0.6,0.2,0.8,0.5,0.4,0.6c-0.4,0.2-1.3,0.2-1.9-0.1
				C27.1,13.9,27,13.5,27.4,13.4z"/>
			<path class="st1" d="M26.9,11.7c0.3,0,0.8,0.1,1.2,0.4c0.4,0.3,0.6,0.5,0.3,0.5c-0.3,0.1-0.9-0.1-1.3-0.3
				C26.7,12,26.6,11.7,26.9,11.7z"/>
			<path class="st1" d="M26.4,10c0.2,0,0.5,0.3,0.8,0.5c0.3,0.3,0.4,0.4,0.2,0.4c-0.2,0-0.6-0.2-0.8-0.5C26.3,10.2,26.2,10,26.4,10z
				"/>
		</g>
		<g>
			<path class="st1" d="M25.3,10.6c-0.6,0.2-1.7-0.3-2.4-1c-0.6-0.8-0.6-1.7,0-1.9c0.6-0.1,1.4,0.6,2.1,1.4
				C25.6,9.9,25.8,10.5,25.3,10.6z"/>
			<path class="st1" d="M25.5,12.7c-0.6,0.3-1.8,0.1-2.5-0.5c-0.7-0.6-0.6-1.3,0-1.6c0.6-0.2,1.6,0.2,2.2,0.7
				C25.9,12,26.1,12.5,25.5,12.7z"/>
			<path class="st1" d="M25.6,14.7c-0.6,0.3-1.7,0.3-2.4,0c-0.7-0.4-0.6-1,0-1.3c0.6-0.3,1.6-0.2,2.2,0.2
				C26.1,14,26.2,14.4,25.6,14.7z"/>
			<path class="st1" d="M25.8,16.8c-0.6,0.3-1.6,0.5-2.3,0.3c-0.6-0.2-0.6-0.7,0-1.1c0.6-0.3,1.5-0.4,2.2-0.2
				C26.3,16.1,26.4,16.5,25.8,16.8z"/>
			<path class="st1" d="M25.9,18.9c-0.5,0.3-1.5,0.6-2.1,0.5c-0.6-0.1-0.6-0.5,0-0.8c0.5-0.3,1.4-0.5,2-0.4
				C26.3,18.2,26.4,18.6,25.9,18.9z"/>
			<path class="st1" d="M25.9,21.1c-0.5,0.3-1.3,0.6-1.8,0.6c-0.5,0-0.5-0.3,0-0.7c0.5-0.3,1.2-0.5,1.7-0.5
				C26.4,20.5,26.4,20.8,25.9,21.1z"/>
		</g>
	</g>
</g>
</svg>
