<?xml version="1.0" encoding="utf-8"?>
<!-- Generator: Adobe Illustrator 19.1.0, SVG Export Plug-In . SVG Version: 6.00 Build 0)  -->
<svg version="1.1" id="Layer_1" xmlns="http://www.w3.org/2000/svg" xmlns:xlink="http://www.w3.org/1999/xlink" x="0px" y="0px"
	 viewBox="4 11 43.2 26.1" height="26px" width="43px" style="enable-background:new 4 11 43.2 26.1;" xml:space="preserve">
<style type="text/css">
	.st0{fill:#FFFFFF;}
	.st1{opacity:0.5;fill:#FFFFFF;enable-background:new    ;}
</style>
<path class="st0" d="M25.9,28.2l0.3,0.3l-0.1,7L26,35.6h-0.2v0.1h-1.4v0.1l-0.6,0.8l1.1,0.4l0,0h0.4l0,0l5.4-0.2l0,0l0,0L30.1,36
	v-0.3h-1.4l0,0h-0.2L28,35.4l0,0v-6.7l0,0l0.4-0.4H29l0.6-0.1l16.5,0.2l1-0.1V12.2L4.3,11L4,11.5v16.4l20.5,0.2l0,0v0.1l0,0
	L25.9,28.2z M28.3,28.4L28.3,28.4L28.3,28.4L28.3,28.4z M5.4,27.1V12l40.6,1l0,0v14.4L5.4,27.1z"/>
<polygon class="st1" points="46.4,27.9 5,27.4 4.8,11.5 46.6,12.8 "/>
</svg>
