<?xml version="1.0" encoding="utf-8"?>
<!-- Generator: Adobe Illustrator 19.1.0, SVG Export Plug-In . SVG Version: 6.00 Build 0)  -->
<svg version="1.1" id="Layer_1" xmlns="http://www.w3.org/2000/svg" xmlns:xlink="http://www.w3.org/1999/xlink" x="0px" y="0px"
	 viewBox="-10 11 24.5 25.9" height="26px" width="25px" style="enable-background:new -10 11 24.5 25.9;" xml:space="preserve">
<style type="text/css">
	.st0{opacity:0.25;fill:#FFFFFF;enable-background:new    ;}
	.st1{fill:#FFFFFF;}
</style>
<rect x="-9.7" y="12.6" class="st0" width="11.5" height="24"/>
<path class="st1" d="M1,12.2V11h-9.7v1.2H-10v24.8H2.6V12.2H1z M-7.9,31.9h-1.2v-1h1.2C-7.9,30.9-7.9,31.9-7.9,31.9z M-7.9,28.1
	h-1.2v-1h1.2C-7.9,27-7.9,28.1-7.9,28.1z M-7.9,24.2h-1.2v-1h1.2C-7.9,23.1-7.9,24.2-7.9,24.2z M-7.9,22.2h-1.2v-1h1.2
	C-7.9,21.2-7.9,22.2-7.9,22.2z M-7.9,20.3h-1.2v-1h1.2C-7.9,19.2-7.9,20.3-7.9,20.3z M-7.9,18.3h-1.2v-1h1.2
	C-7.9,17.3-7.9,18.3-7.9,18.3z M-7.9,16.3h-1.2v-1h1.2C-7.9,15.3-7.9,16.3-7.9,16.3z M-7.9,14.4h-1.2v-1h1.2
	C-7.9,13.3-7.9,14.4-7.9,14.4z M-5.5,28.1h-1.2v-1h1.2L-5.5,28.1L-5.5,28.1z M-5.5,26.1h-1.2v-1h1.2L-5.5,26.1L-5.5,26.1z
	 M-5.5,22.2h-1.2v-1h1.2L-5.5,22.2L-5.5,22.2z M-5.5,20.3h-1.2v-1h1.2L-5.5,20.3L-5.5,20.3z M-5.5,18.3h-1.2v-1h1.2L-5.5,18.3
	L-5.5,18.3z M-5.5,16.3h-1.2v-1h1.2L-5.5,16.3L-5.5,16.3z M-5.5,14.4h-1.2v-1h1.2L-5.5,14.4L-5.5,14.4z M-3.2,33.9h-1.2v-1h1.2
	L-3.2,33.9L-3.2,33.9z M-3.2,30h-1.2v-1.1h1.2L-3.2,30L-3.2,30z M-3.2,26.1h-1.2v-1h1.2L-3.2,26.1L-3.2,26.1z M-3.2,24.2h-1.2v-1
	h1.2L-3.2,24.2L-3.2,24.2z M-3.2,22.2h-1.2v-1h1.2L-3.2,22.2L-3.2,22.2z M-3.2,20.3h-1.2v-1h1.2L-3.2,20.3L-3.2,20.3z M-3.2,18.3
	h-1.2v-1h1.2L-3.2,18.3L-3.2,18.3z M-3.2,16.3h-1.2v-1h1.2L-3.2,16.3L-3.2,16.3z M-3.2,14.4h-1.2v-1h1.2L-3.2,14.4L-3.2,14.4z
	 M-0.9,30H-2v-1.1h1.2L-0.9,30L-0.9,30z M-0.9,28.1H-2v-1h1.2L-0.9,28.1L-0.9,28.1z M-0.9,26.1H-2v-1h1.2L-0.9,26.1L-0.9,26.1z
	 M-0.9,24.2H-2v-1h1.2L-0.9,24.2L-0.9,24.2z M-0.9,22.2H-2v-1h1.2L-0.9,22.2L-0.9,22.2z M-0.9,18.3H-2v-1h1.2L-0.9,18.3L-0.9,18.3z
	 M-0.9,16.3H-2v-1h1.2L-0.9,16.3L-0.9,16.3z M-0.9,14.4H-2v-1h1.2L-0.9,14.4L-0.9,14.4z M1.5,31.9H0.2v-1h1.2
	C1.5,30.9,1.5,31.9,1.5,31.9z M1.5,30H0.2v-1.1h1.2C1.5,28.9,1.5,30,1.5,30z M1.5,28.1H0.2v-1h1.2C1.5,27,1.5,28.1,1.5,28.1z
	 M1.5,26.1H0.2v-1h1.2C1.5,25.1,1.5,26.1,1.5,26.1z M1.5,24.2H0.2v-1h1.2C1.5,23.1,1.5,24.2,1.5,24.2z M1.5,20.3H0.2v-1h1.2
	C1.5,19.2,1.5,20.3,1.5,20.3z M1.5,18.3H0.2v-1h1.2C1.5,17.3,1.5,18.3,1.5,18.3z M1.5,16.3H0.2v-1h1.2C1.5,15.3,1.5,16.3,1.5,16.3z
	 M1.5,14.4H0.2v-1h1.2C1.5,13.3,1.5,14.4,1.5,14.4z"/>
<path class="st1" d="M3,17.2v19.8h11.5V17.2H3z M5,32.1H3.7v-1H5V32.1z M5,29.9H3.7v-1H5V29.9z M5,27.7H3.7v-1H5V27.7z M5,25.5H3.7
	v-1H5V25.5z M5,23.3H3.7v-1H5V23.3z M5,21H3.7v-1H5V21z M5,18.8H3.7v-1H5V18.8z M7.2,34.3H5.9v-1h1.3V34.3z M7.2,29.9H5.9v-1h1.3
	V29.9z M7.2,27.7H5.9v-1h1.3V27.7z M7.2,23.3H5.9v-1h1.3V23.3z M7.2,21H5.9v-1h1.3V21z M7.2,18.8H5.9v-1h1.3V18.8z M9.3,32.1H8v-1
	h1.3V32.1z M9.3,29.9H8v-1h1.3V29.9z M9.3,27.7H8v-1h1.3V27.7z M9.3,25.5H8v-1h1.3V25.5z M9.3,23.3H8v-1h1.3V23.3z M9.3,18.8H8v-1
	h1.3V18.8z M11.5,32.1h-1.3v-1h1.3V32.1z M11.5,27.7h-1.3v-1h1.3V27.7z M11.5,25.5h-1.3v-1h1.3V25.5z M11.5,23.3h-1.3v-1h1.3V23.3z
	 M11.5,21h-1.3v-1h1.3V21z M11.5,18.8h-1.3v-1h1.3V18.8z M13.6,34.3h-1.3v-1h1.3V34.3z M13.6,29.9h-1.3v-1h1.3V29.9z M13.6,27.7
	h-1.3v-1h1.3V27.7z M13.6,25.5h-1.3v-1h1.3V25.5z M13.6,23.3h-1.3v-1h1.3V23.3z M13.6,21h-1.3v-1h1.3V21z M13.6,18.8h-1.3v-1h1.3
	V18.8z"/>
</svg>
