<?xml version="1.0" encoding="utf-8"?>
<!-- Generator: Adobe Illustrator 19.1.0, SVG Export Plug-In . SVG Version: 6.00 Build 0)  -->
<svg version="1.1" id="Layer_1" xmlns="http://www.w3.org/2000/svg" xmlns:xlink="http://www.w3.org/1999/xlink" x="0px" y="0px"
	 viewBox="6 11 46.6 26" height="26px" width="47px" style="enable-background:new 6 11 46.6 26;" xml:space="preserve">
<style type="text/css">
	.st0{opacity:0.9;}
	.st1{opacity:0.5;clip-path:url(#SVGID_2_);fill:#FFFFFF;enable-background:new    ;}
	.st2{opacity:0.5;fill:#FFFFFF;enable-background:new    ;}
	.st3{opacity:0.25;fill:#FFFFFF;enable-background:new    ;}
	.st4{opacity:0.75;fill:#FFFFFF;enable-background:new    ;}
	.st5{fill:#FFFFFF;}
	.st6{fill:#8A5D37;}
</style>
<g>
	<g class="st0">
		<g>
			<g>
				<g>
					<g>
						<defs>
							<rect id="SVGID_1_" x="7.2" y="11.2" width="44.3" height="3.9"/>
						</defs>
						<clipPath id="SVGID_2_">
							<use xlink:href="#SVGID_1_"  style="overflow:visible;"/>
						</clipPath>
						<rect x="7.2" y="11.2" class="st1" width="44.3" height="3.9"/>
					</g>
				</g>
			</g>
		</g>
	</g>
</g>
<rect x="7.2" y="11.2" class="st2" width="44.3" height="1.6"/>
<g>
	<rect x="10.1" y="17.7" class="st3" width="38.7" height="17.4"/>
	<rect x="12.2" y="18.8" class="st4" width="8.2" height="8.4"/>
	<path class="st5" d="M20.6,27.3H12v-8.6h8.5C20.6,18.7,20.6,27.3,20.6,27.3z M12.4,27.1h7.9v-8.1h-7.9V27.1z"/>
	<rect x="13.5" y="19.3" class="st5" width="5.7" height="0.5"/>
	<rect x="13.5" y="20.7" class="st5" width="2.3" height="0.3"/>
	<rect x="13.5" y="21.4" class="st5" width="2.3" height="0.3"/>
	<rect x="13.5" y="22.1" class="st5" width="2.3" height="0.3"/>
	<rect x="13.5" y="22.8" class="st5" width="2.3" height="0.3"/>
	<rect x="16.8" y="20.7" class="st5" width="2.3" height="0.3"/>
	<rect x="16.8" y="21.4" class="st5" width="2.3" height="0.3"/>
	<rect x="16.8" y="22.1" class="st5" width="2.3" height="0.3"/>
	<rect x="16.8" y="22.8" class="st5" width="2.3" height="0.3"/>
	<rect x="13.5" y="23.5" class="st5" width="2.3" height="0.3"/>
	<rect x="13.5" y="24.3" class="st5" width="2.3" height="0.3"/>
	<rect x="13.5" y="25" class="st5" width="2.3" height="0.3"/>
	<rect x="13.5" y="25.7" class="st5" width="2.3" height="0.3"/>
	<rect x="16.8" y="23.5" class="st5" width="2.3" height="0.3"/>
	<rect x="16.8" y="24.3" class="st5" width="2.3" height="0.3"/>
	<rect x="16.8" y="25" class="st5" width="2.3" height="0.3"/>
	<rect x="16.8" y="25.7" class="st5" width="2.3" height="0.3"/>
	<path class="st5" d="M52.3,15h-0.4v-3.8c0-0.1-0.1-0.2-0.3-0.2h-0.2c-0.1,0-0.3,0.1-0.3,0.2V15H40.8v-3.8c0-0.1-0.1-0.2-0.3-0.2
		h-0.2c-0.1,0-0.3,0.1-0.3,0.2V15H29.7v-3.8c0-0.1-0.1-0.2-0.3-0.2h-0.2c-0.1,0-0.3,0.1-0.3,0.2V15H18.5v-3.8c0-0.1-0.1-0.2-0.3-0.2
		h-0.2c-0.1,0-0.3,0.1-0.3,0.2V15H7.4v-3.8c0-0.1-0.1-0.2-0.3-0.2H7c-0.1,0-0.3,0.1-0.3,0.2V15H6.3C6.1,15,6,15.1,6,15.2v0.2
		c0,0.1,0.1,0.3,0.3,0.3h2.5V37h1.2v-1.6h38.6V37h1V15.7h2.5c0.2,0,0.3-0.1,0.3-0.3v-0.2C52.6,15.1,52.5,15,52.3,15z M10.1,17.8
		h12.1v16.8H10.1V17.8z M35.4,17.8v16.8H23V17.8H35.4z M36.3,34.6V17.8h12.4v16.8H36.3L36.3,34.6z M48.7,17H10.1v-1.3h38.6
		C48.7,15.7,48.7,17,48.7,17z"/>
	<rect x="28.2" y="33.2" class="st6" width="1.2" height="0.6"/>
	<rect x="44.4" y="33.2" class="st6" width="1.2" height="0.6"/>
	<path class="st5" d="M47.1,32.1H26.7c-0.1,0-0.3,0.1-0.3,0.2v0.8c0,0.1,0.1,0.2,0.3,0.2h1.5V37h1.2v-3.7h15.1V37h1.2v-3.7h1.5
		c0.1,0,0.3-0.1,0.3-0.2v-0.8C47.3,32.2,47.2,32.1,47.1,32.1z"/>
</g>
</svg>
