<?xml version="1.0" encoding="utf-8"?>
<!-- Generator: Adobe Illustrator 19.1.0, SVG Export Plug-In . SVG Version: 6.00 Build 0)  -->
<svg version="1.1" id="Layer_1" xmlns="http://www.w3.org/2000/svg" xmlns:xlink="http://www.w3.org/1999/xlink" x="0px" y="0px"
	 viewBox="0 0 183.6 22.4" style="enable-background:new 0 0 183.6 22.4;" xml:space="preserve">
<style type="text/css">
	.st0{fill:white;}
</style>
<g>
	<path class="st0" d="M31.5,4.7v14.8v0v0c0,1.7-0.8,2.5-2.5,2.5c-1.7,0-2.5-0.8-2.5-2.5V4.7H8.7C7.3,4.7,6.4,5,5.8,5.6
		C5.5,5.9,5.2,6.3,5.2,6.7C5.1,7.1,5,7.8,5,8.9v10.6c0,1.7-0.8,2.5-2.5,2.5c-1.7,0-2.5-0.8-2.5-2.5v0V8c0-2.6,0.7-4.6,2-6
		c1.3-1.4,3.7-2,7.3-2h39.3c3.6,0,6,0.7,7.3,2c1.4,1.5,2,3.5,2,6v11.5v0c0,1.7-0.8,2.5-2.5,2.5c-1.7,0-2.5-0.8-2.5-2.5v0V8.9
		c0-1.1,0-1.8-0.1-2.2c-0.4-1.4-1.6-2-3.5-2H31.5z"/>
	<path class="st0" d="M95.2,4.7v14.8v0v0c0,1.7-0.8,2.5-2.5,2.5c-1.7,0-2.5-0.8-2.5-2.5V4.7H72.4c-1.4,0-2.3,0.3-2.9,0.9
		c-0.4,0.4-0.6,0.7-0.7,1.1c-0.1,0.4-0.1,1.1-0.1,2.2v10.6c0,1.7-0.8,2.5-2.5,2.5c-1.7,0-2.5-0.8-2.5-2.5v0V8c0-2.6,0.7-4.6,2-6
		c1.3-1.4,3.7-2,7.3-2h39.3c3.6,0,6,0.7,7.3,2c1.4,1.5,2,3.5,2,6v11.5v0c0,1.7-0.8,2.5-2.5,2.5c-1.7,0-2.5-0.8-2.5-2.5v0V8.9
		c0-1.1,0-1.8-0.1-2.2c-0.4-1.4-1.6-2-3.5-2H95.2z"/>
	<path class="st0" d="M181.2,0.3h-6.9l0,0h-39.3l0,0h-6.9c-1.6,0-2.4,0.8-2.4,2.3c0,1.6,0.8,2.4,2.4,2.4h24.1v14.9
		c0,1.7,0.8,2.5,2.5,2.5c1.7,0,2.5-0.8,2.5-2.5v0v0V5h24c1.6,0,2.4-0.8,2.4-2.4C183.6,1,182.8,0.3,181.2,0.3z"/>
</g>
</svg>
