<?xml version="1.0" encoding="utf-8"?>
<!-- Generator: Adobe Illustrator 19.1.0, SVG Export Plug-In . SVG Version: 6.00 Build 0)  -->
<svg version="1.1" id="Layer_1" xmlns="http://www.w3.org/2000/svg" xmlns:xlink="http://www.w3.org/1999/xlink" x="0px" y="0px"
	 viewBox="21 11 66.1 25.9" height="26px" width="66px" style="enable-background:new 21 11 66.1 25.9;" xml:space="preserve">
<style type="text/css">
	.st0{opacity:0.5;fill:#FFFFFF;enable-background:new    ;}
	.st1{opacity:0.25;fill:#FFFFFF;enable-background:new    ;}
	.st2{opacity:0.75;fill:#FFFFFF;enable-background:new    ;}
	.st3{fill:#FFFFFF;}
	.st4{opacity:0.9;fill:#FFFFFF;enable-background:new    ;}
</style>
<g>
	<g>
		<g>
			<g>
				<path class="st0" d="M31.3,16.1c0,0,4.4-2.2,7.5-2.7c3.2-0.5,12.7-1.2,14.9-1c2.2,0.2,11.8-0.6,18.2,2c6.6,2.6,7.6,3.3,6.6,5.1
					c-1,1.8-2.6,3.5-4.9,3.7c-2.3,0.2-17.5,2.4-21.7,2.7c-4.2,0.3-19.7-2.1-20.3-3.2C31.1,21.5,29.3,17,31.3,16.1z"/>
				<path class="st1" d="M40.2,22.9c0.2,0,2.3-3.6,14.1-3.6C64.3,19.2,67.4,23,67.4,23s0.1,0.4-0.1,0.5c-0.1,0.1-10.8,1.4-11,1.4
					s-4.5-0.2-4.9-0.2c-0.4,0-10.9-1.3-11-1.3C40.2,23.3,40.2,22.9,40.2,22.9z"/>
				<path class="st0" d="M69.4,19.2c-3.4-1.1-4.2-1.3-4.2-1.3l-0.8-1.5c0,0-9.7-2.1-22.6-0.2c-1.6,0.2-1.4,0.5-1.4,0.5l-0.9,1.8
					c0,0-3.6,1.4-4.5,3.2c0.1,0.7,0.1,0.6,0.1,0.6s0.5-1.8,4.9-3.7c0,0,7.4-1.9,15.1-1.6c7.7,0.3,17.7,3.1,17.3,4.9
					c0.5,0.6,0.5,0.6,0.5,0.6S72.9,20.2,69.4,19.2z M39.8,18.2l0.6-1.6c0,0,7.7-1.6,17.4-1c4.5,0.3,6.6,0.7,6.6,0.7l0.6,1.8
					C65,18.2,54.1,14.8,39.8,18.2z"/>
				<path class="st0" d="M39.4,22.9c0.1-0.1,0.8-0.8,1.4-1c0.5-0.2,0.5-0.5,0.5-0.5l0.6-0.3v-0.5h1c0,0,0.6-0.5,2.3-0.8
					c1.7-0.4,2.7-0.6,2.7-0.6s2.2-0.1,2.8-0.1c0.6-0.1,0.4-0.1,0.7-0.1c0.4-0.1,0.6-0.1,0.6-0.1v-0.7h0.6v0.7c0,0,6.8-0.1,9.5,0.6
					c-0.1-0.4,0-0.6,0-0.6l0.6,0.1v0.8c0,0,2.7,0.8,4.3,1.9c1.5,1,1.5,1.3,1.5,1.3l-0.2,0.6c0,0-1.1-0.2-0.9-0.1
					c0.2,0.1-12.6,1.5-12.7,1.5c-0.1,0-12.9-1.2-12.9-1.2L39.4,22.9z"/>
				<path class="st2" d="M78.8,16.4c-8.8-4.3-23.2-4.7-30.3-4.3c-7.1,0.4-17.4,1.4-23.5,6c-2.2,1.7-2,3.6-2,3.6s-0.3,1.4,1.9,3
					c-0.4-0.3-0.8-0.5-1.2-0.7l3.1,5.3l0.2-0.1c0,0-2.1,6.4,26.1,7.7c19.2,0.3,26.8-4.3,28-7.5c0-0.1,0.1-0.1,0.1-0.3l0.3-0.2
					l2.8-4.6C84.2,24.5,88.9,21.3,78.8,16.4z M37.1,14.7c8.7-2.6,19.2-1.9,29.4-0.7s12.4,6.4,6.3,8c-24.8,5.1-38.1-0.6-38.1-0.6
					C28.9,19,30.5,16.7,37.1,14.7z M36.5,28.9c0.1,0,0.2,0.1,0.3,0.1c0,0,0,0-0.1,0C36.7,28.9,36.6,28.9,36.5,28.9z"/>
				<path class="st3" d="M21.1,19.1l4.1,8.7l0.1,0.1l-1.2-3l3.2,5.8h0.2l-0.6-4.1l5,6.8c0.2,0.1,1.5-4.7,1.5-4.7s5.5,6.8,5.6,6.8
					c0.1,0.1,0.3,0.1,0.3,0.1l2.9-5.3l5.3,6.6l0.3-0.1l4.5-5.9c0,0,4.2,6,4.3,6c0.1,0.1,0.6,0.1,0.6,0.1l5.6-6.3l2.9,5.5
					c0.2,0,6-6.8,6-6.7s1.2,5.1,1.2,5.1l0.3-0.1l5.5-6.7l-0.4,4.5c0.1-0.1,4.7-6.8,4.7-6.8s-1.9,4-1.8,3.8c0.2-0.1,2.2-4.2,2.2-4.2
					s-0.2,0-0.8,0.3c-0.3,0.6-4.1,6.3-4.1,6.3l0.4-4.4l-0.3,0.1l-5.6,6.8l-1-4.9l-0.5,0.1l-5.6,6.5L63,30.4l-0.3,0.1
					c0,0-5.5,6.2-5.4,6.2c0.1,0.1-0.5,0.1-0.5,0.1l-4.2-6l-0.3,0.1l-4.5,5.8l-5.3-6.8c-0.3-0.1-3.1,5.5-3.1,5.5l-0.1-0.2l-5.6-6.8
					l-0.3,0.1L32,32.7l-4.9-6.4c0,0-0.5-0.1-0.4-0.1s0.6,3.9,0.6,3.9L24,24.5L24,24.6L21.1,19.1z"/>
				<path class="st4" d="M42.4,23.4c0,0-3,2.1-3.4,5.5C40.6,24.8,42,24.4,42.4,23.4z"/>
				<path class="st4" d="M31.3,26.9c-0.1,0.2,3.8-3.2,6.9-4.3C36.3,23,33.2,24.6,31.3,26.9z"/>
				<path class="st4" d="M25.9,24.7c0,0,4.4-3.1,8.1-3.5C31.9,21.3,27.9,22.8,25.9,24.7z"/>
				<path class="st4" d="M31.5,19.5c0,0-5.3-0.2-8.1,1.2C24.6,19.8,28.5,18.8,31.5,19.5z"/>
				<path class="st4" d="M31.4,17.4c0,0-2.3-0.5-5,0.3C26.6,17.2,29.6,16.5,31.4,17.4z"/>
				<path class="st4" d="M33.6,15.7c0,0-1.4-0.7-2.7-0.5C32.8,15,33.3,15.4,33.6,15.7z"/>
				<path class="st4" d="M36,14.6c0,0-0.9-0.5-1.6-0.5C35.7,14.1,36.3,14.4,36,14.6z"/>
				<path class="st4" d="M47.2,24.1c0,0-1.3,3.6-0.8,5.5c0.1,0.1,0.1,0.1,0.1,0.1S46.6,26.1,47.2,24.1z"/>
				<path class="st4" d="M53.7,24.5l-0.1,5.7c0.4-0.1,0.4-5.8,0.4-5.8"/>
				<path class="st4" d="M60.2,24.5c0,0,1.8,2.6,2.2,5.4C62.6,28.9,61.8,26,60.2,24.5z"/>
				<path class="st4" d="M73.1,28.5c-2.7-3.6-6.4-4.7-6.7-4.7C66.5,23.7,71.2,25.8,73.1,28.5z"/>
				<path class="st4" d="M72.9,22.8c0,0,4.9,0.3,7.5,3.5C80.4,24.7,76.5,22.7,72.9,22.8z"/>
				<path class="st4" d="M75.7,20.7c-0.2,0.1,4.7-0.4,9.2,1.7C83.7,20.8,77.2,20.1,75.7,20.7z"/>
				<path class="st4" d="M76.5,18.7c0,0,3.4-0.7,6.2,0.3C81.4,18.2,77.3,17.9,76.5,18.7z"/>
				<path class="st4" d="M78.1,16.5c0.3,0-2,0.1-2.5,0.5C75.7,16.6,76.8,16.5,78.1,16.5z"/>
				<path class="st4" d="M73,15.4c0,0,0.7-0.5,1.6-0.5C73.8,14.3,73.4,14.8,73,15.4z"/>
				<path class="st3" d="M87,19.7c0.5-1.9-4.8-4.2-5.5-4.7c-0.8-0.5-12.3-4.1-29.1-4c-16.9,0.1-22.7,1.6-25.8,3
					c-3.1,1.4-6.5,3.4-5.5,5.1c0,0,0.1,0.3,0.5,0.7l1.5,2.9l0.1-0.1L22,20c0.2,0.2,0.5,0.5,0.8,0.7l0.2,0.3l0.1-0.1
					c0.1,0.1,0.1,0.1,0.2,0.1l-0.1,1.1l0.2-0.5l0.6,1.8l0.1,0.1l1.1-1.1l1.9,3.2h0.3l3.1-1.5l3.1,3.6l4.6-2.2l4.4,4.2
					c0.1,0,4.6-3.5,4.6-3.5l5.3,4.1l5.5-3.8c0.1,0,0.1,0,0.3,0l4.9,3.6l5.9-4.5l0,0l3,3.2l4-4.2l3,2.1l1.8-3.7l2.1,1.8l1.2-2.9
					c0,0,0.1-0.3-0.1,0.2c-0.1,0.5-1.1,2.2-1.1,2.2l-2.1-1.4c1.2-0.4,2.3-0.8,3.2-1.3c0.1,0.2,0.8,1.2,0.9,1.4l0.1,0.1l2.1-3.6
					L87,19.7z M58.3,26.5L58.3,26.5H58c-6.9,0.1-14-0.5-18.7-1c-9.7-1.1-14.2-3.2-16.3-4.8l-0.9-3.4l1.7,2.1l0.3-3.8l2.8,1.4l1-3.2
					l2.7,1.4l1.3-2.5H32l3,1.4H35l1-1.9l1.2,1.2l0.8-1.4l0.7,1.4l1.2-1.6l1.2,1l0.7-1l1.5,0.9l1.2-1.2l2.1,0.8l1.1-0.9l0.9,0.7
					l0.8-0.7c0.1,0,0.1,0,0.1,0l0.8,0.8l0.8-0.8c0,0,0.1,0,0.1,0l0.8,0.8l0.6-0.8c0.1,0,0.1,0,0.1,0l1.3,0.7l1-0.6h0.1l0.8,0.7
					l0.6-0.6l0.7,0.8l1.5-0.6l1,0.8l1.1-0.6l1.4,1l1.6-0.8c0.1,0,0.2,0,0.3,0.1l1.8,1.2l1.8-0.8l1.8,1.4l1.4-0.9c0.1,0,0.1,0,0.1,0
					l2.5,1.8l1.6-0.8l1.9,2.2l1.9-1.2l0.1,0.4l0.7,2.2l1.4-1.9l0.9,3.4l3-0.9l-1.4,2.4l2.3-0.5c-0.1,0.1-0.3,0.3-0.5,0.5
					c-3.2,2.5-12,4.5-16.7,5.1C66,26.1,62.2,26.5,58.3,26.5z M27.9,13.7c1-0.4,2.2-0.7,3.9-1L30.6,15L27.9,13.7z M32.2,12.6
					c1.1-0.2,2.3-0.4,3.8-0.6l-1,1.8L32.2,12.6z M36.1,12c0.6-0.1,1.2-0.1,1.9-0.2l-0.8,1.4L36.1,12z M38.1,11.8
					c0.5-0.1,1.1-0.1,1.7-0.1l-1,1.4L38.1,11.8z M40.2,11.6c0.6-0.1,1.2-0.1,1.8-0.1l-0.6,1L40.2,11.6z M42,11.5
					c0.6-0.1,2.1-0.1,2.7-0.1l-1.3,1L42,11.5z M45.2,11.5c1.1-0.1,1.4-0.1,2.6-0.2l-1,0.8L45.2,11.5z M48.1,11.3c0.5,0,1,0,1.4,0
					l-0.6,0.6L48.1,11.3z M50,11.3c0.5,0,0.9,0,1.4,0l-0.7,0.6L50,11.3z M53.3,11.3c0.6,0,1.3,0,1.9,0l-0.8,0.5L53.3,11.3z
					 M55.7,11.3c0.4,0,0.8,0,1.2,0.1l-0.6,0.5L55.7,11.3z M57.1,11.3c1.4,0.1,2.9,0.1,4.2,0.3l-1,0.6l-1-0.7L57.8,12L57.1,11.3z
					 M61.5,11.6c0.9,0.1,1.8,0.1,2.7,0.3l-1.4,0.6L61.5,11.6z M64.9,11.9c1.1,0.1,2.1,0.3,3.2,0.4l-1.7,0.6L64.9,11.9z M68.5,12.3
					c1,0.1,1.9,0.3,2.7,0.5l-1.2,0.8L68.5,12.3z M71.8,12.8c3.6,0.6,6.3,1.3,7.9,1.8l-2,1.2l-1.9-2.2l-1.6,0.8L71.8,12.8z
					 M81.8,15.5c1,0.5,2.8,1.4,3.9,2.4l-3,0.9L81.8,15.5z M86.5,19.8l-2.1,0.5l1.4-2.3C86.5,18.5,86.8,19.2,86.5,19.8z M81.7,15.4
					l-1.3,1.8l-0.6-2l-0.1-0.6c0.8,0.3,1.3,0.5,1.4,0.5C81.3,15.2,81.5,15.3,81.7,15.4z M52.8,11.3l-0.5,0.6l-0.6-0.6
					c0.2,0,0.4,0,0.6,0C52.5,11.3,52.7,11.3,52.8,11.3z M26.8,14.1c0.3-0.1,0.6-0.3,1-0.4l-1,3.1L24,15.5C25,15,25.9,14.5,26.8,14.1
					z M23.9,15.5l-0.3,3.5L22,17h-0.1C22.4,16.6,23.1,16.1,23.9,15.5z M21.9,17.1l1,3.5c-0.1-0.1-0.2-0.1-0.3-0.2l-1.4-1.8l0,0
					C21.1,18.2,21.4,17.6,21.9,17.1z M21.6,19.4l-0.1-0.2l0.6,0.8C21.8,19.8,21.7,19.5,21.6,19.4z M27.2,25.7l-2.1-3.4
					c0,0-1,1.2-1.1,1.2c-0.1,0-0.7-1.9-0.8-2.3c1.4,0.9,3.6,2,7.1,2.9L27.2,25.7z M30.7,24.2c2,0.5,4.4,1,7.3,1.4l-4.4,2.1
					L30.7,24.2z M38.3,25.6c0.3,0.1,0.6,0.1,0.9,0.1c2.1,0.3,4.7,0.5,7.5,0.7l-4.1,3.1L38.3,25.6z M52.4,30.2l-5-3.7
					c3.2,0.2,6.7,0.3,10.1,0.3L52.4,30.2z M63.1,30.1l-4.5-3.3c3.4-0.1,6.8-0.3,9.9-0.8L63.1,30.1z M78.9,26.7c0,0-2.9-2-3-1.9
					s-0.3,0.1-0.3,0.1L72,28.7l-2.9-2.9c0.1,0,0.3-0.1,0.5-0.1c2.9-0.4,7.3-1.3,11-2.5C80.3,23.9,78.9,26.7,78.9,26.7z M84.2,21.8
					L84.2,21.8c0.9-0.5,1.7-0.9,2.3-1.4c0.1-0.1,0.1-0.1,0.2-0.2l-1.6,2.9C84.7,22.6,84.2,22,84.2,21.8z"/>
				<path class="st3" d="M23,22.6c-0.1-0.1,0.1,1.6,2.9,3.1c0.9,0.5,2.1,1,3.5,1.5c0.3,0.1,0.7,0.3,1,0.3c2.7,0.8,5.8,1.6,8.6,2
					c4.7,0.7,19.2,1.6,27.1,0.6s16.6-3.4,18.8-6.6c-0.7,0.7-2.9,3.1-12.1,5.1c-5.5,1.1-12.8,1.8-22.7,1.3
					c-9.9-0.5-17.6-1.6-25.2-5.5C23.1,23.6,23.3,23.1,23,22.6z"/>
			</g>
		</g>
	</g>
</g>
</svg>
